<?xml version="1.0" encoding="utf-8"?>
<!-- Generator: Adobe Illustrator 22.1.0, SVG Export Plug-In . SVG Version: 6.00 Build 0)  -->
<svg version="1.1" id="Layer_1" xmlns="http://www.w3.org/2000/svg" xmlns:xlink="http://www.w3.org/1999/xlink" x="0px" y="0px"
	 viewBox="0 0 16 16" style="enable-background:new 0 0 16 16;" xml:space="preserve">
<style type="text/css">
	.st0{fill:none;stroke:#000000;stroke-width:0.5;stroke-miterlimit:10;}
	.st1{fill:#59A0D2;}
	.st2{fill:#FFFFFF;}
	.st3{fill:#939498;}
	.st4{fill:#231F20;}
</style>
<g>
	<g>
		<path class="st0" d="M5.1,8"/>
		<path class="st1" d="M7.2,11.1V0c-0.3,0-2.3-0.3-4,1.2C1.3,2.9,1.5,5.3,1.5,5.5c0,0.4,0,2.2,1.2,3.7C4.4,11.2,7,11.1,7.2,11.1z"/>
		<path class="st1" d="M2.9,8.6C2.6,8.3,2.3,7.9,2,7.5C1.5,7.9,1,8.3,0.5,8.8c0,0.2-0.2,0.8,0.2,1.3c0.2,0.2,0.4,0.4,0.6,0.5
			c0.2,0.1,0.6,0.3,1.1,0.3c0.6,0,1-0.2,1.2-0.4C3.5,10.3,3.2,10,2.8,9.7C2.6,9.5,2.3,9.6,2,9.3C1.9,9.2,1.7,9.1,1.7,8.9
			C1.7,8.8,1.9,8.7,2.9,8.6z"/>
		<circle class="st2" cx="3.4" cy="7" r="0.5"/>
		<circle class="st2" cx="3.4" cy="3.8" r="0.5"/>
		<path class="st1" d="M3,2.2C2.7,2.6,2.4,3,2.1,3.3c-0.5-0.4-1-0.8-1.5-1.2c0-0.2-0.2-0.8,0.2-1.3c0.2-0.2,0.4-0.4,0.6-0.5
			C1.5,0.2,1.9,0,2.5,0c0.6,0,1,0.2,1.2,0.4C3.6,0.5,3.4,0.9,2.9,1.2C2.7,1.3,2.5,1.3,2.2,1.5C2,1.6,1.8,1.8,1.9,1.9
			C1.9,2,2,2.2,3,2.2z"/>
		<path class="st2" d="M5.8,5.3c0,0.5-0.5,0.9-0.8,0.8C4.7,6.1,4.6,5.7,4.6,5.4c0-0.2,0.1-0.6,0.4-0.7C5.3,4.6,5.8,4.9,5.8,5.3z"/>
		<g>
			<g>
				<g>
					<path class="st3" d="M7.5,0v11c0.3,0,2.3,0.3,4-1.2c1.9-1.7,1.8-4.1,1.7-4.3c0-0.4,0-2.2-1.2-3.7C10.3-0.1,7.8,0,7.5,0z"/>
					<polygon class="st3" points="14.9,3.3 12.2,2.4 13,5 					"/>
					<polygon class="st3" points="14.9,7.9 12.3,8.8 13,6.2 					"/>
				</g>
			</g>
			<circle class="st2" cx="11.2" cy="7.2" r="0.5"/>
			<circle class="st2" cx="11.2" cy="4" r="0.5"/>
			<path class="st2" d="M9.1,5.7L9.4,6c0.1,0.1,0.4,0,0.4-0.2V5.3c0-0.2-0.2-0.3-0.4-0.2L9.1,5.4C9,5.5,9,5.6,9.1,5.7z"/>
		</g>
	</g>
	<g>
		<path class="st4" d="M1.5,11.8h0.4c0.1,0,0.1,0,0.2,0c0.1,0,0.1,0,0.2,0s0.1,0,0.2,0.1c0.1,0,0.1,0.1,0.1,0.2
			c0,0.1,0.1,0.2,0.1,0.3c0,0.1,0,0.2,0,0.4v0.7c0,0.1,0,0.3,0,0.4c0,0.1-0.1,0.2-0.1,0.3c0,0.1-0.1,0.1-0.1,0.2
			c-0.1,0-0.1,0.1-0.2,0.1c-0.1,0-0.1,0-0.2,0c-0.1,0-0.1,0-0.2,0H1.5V11.8z M2,14.1c0.1,0,0.1,0,0.2,0c0,0,0.1,0,0.1-0.1
			c0,0,0-0.1,0.1-0.2c0-0.1,0-0.2,0-0.3v-0.8c0-0.1,0-0.2,0-0.3c0-0.1,0-0.1-0.1-0.2c0,0-0.1-0.1-0.1-0.1c0,0-0.1,0-0.2,0H1.9
			L2,14.1L2,14.1z"/>
		<path class="st4" d="M3.7,14.4c0,0-0.1,0-0.1,0c0,0-0.1,0-0.1,0c0,0-0.1-0.1-0.1-0.1c0,0-0.1-0.1-0.1-0.2c0-0.1-0.1-0.1-0.1-0.2
			c0-0.1,0-0.2,0-0.3v-0.9c0-0.1,0-0.2,0-0.3c0-0.1,0-0.2,0.1-0.2c0-0.1,0.1-0.1,0.1-0.1c0,0,0.1-0.1,0.1-0.1c0,0,0.1,0,0.1,0
			c0,0,0.1,0,0.1,0c0,0,0.1,0,0.1,0c0,0,0.1,0,0.1,0c0,0,0.1,0,0.1,0.1c0,0,0.1,0.1,0.1,0.1c0,0.1,0.1,0.1,0.1,0.2
			c0,0.1,0,0.2,0,0.3v0.9c0,0.1,0,0.2,0,0.3c0,0.1,0,0.2-0.1,0.2c0,0.1-0.1,0.1-0.1,0.2c0,0-0.1,0.1-0.1,0.1c0,0-0.1,0-0.1,0
			C3.7,14.4,3.7,14.4,3.7,14.4z M3.7,14.1C3.7,14.1,3.7,14.1,3.7,14.1c0.1,0,0.2-0.1,0.2-0.1c0,0,0-0.1,0-0.1c0-0.1,0-0.1,0-0.2
			v-1.2c0-0.1,0-0.1,0-0.2c0-0.1,0-0.1,0-0.1s0-0.1-0.1-0.1c0,0-0.1,0-0.1,0c0,0-0.1,0-0.1,0c0,0-0.1,0-0.1,0.1c0,0,0,0.1,0,0.1
			c0,0.1,0,0.1,0,0.2v1.2c0,0.1,0,0.1,0,0.2c0,0.1,0,0.1,0,0.1c0,0,0,0.1,0.1,0.1C3.6,14.1,3.6,14.1,3.7,14.1z"/>
		<path class="st4" d="M5.2,14.4c0,0-0.1,0-0.1,0c0,0-0.1,0-0.1,0c0,0-0.1-0.1-0.1-0.1c0,0-0.1-0.1-0.1-0.2c0-0.1-0.1-0.1-0.1-0.2
			c0-0.1,0-0.2,0-0.3v-0.9c0-0.1,0-0.2,0-0.3c0-0.1,0-0.2,0.1-0.2c0-0.1,0.1-0.1,0.1-0.1s0.1-0.1,0.1-0.1c0,0,0.1,0,0.1,0
			c0,0,0.1,0,0.1,0c0.1,0,0.2,0,0.3,0c0.1,0,0.1,0.1,0.2,0.1c0,0,0.1,0.1,0.1,0.2c0,0.1,0,0.1,0,0.2c0,0.1,0,0.1,0,0.2
			c0,0,0,0.1,0,0.2H5.5v-0.1c0-0.3-0.1-0.4-0.2-0.4c0,0-0.1,0-0.1,0c0,0-0.1,0-0.1,0.1c0,0,0,0.1,0,0.1c0,0.1,0,0.1,0,0.2v1.2
			c0,0.1,0,0.1,0,0.2c0,0.1,0,0.1,0,0.1c0,0,0,0.1,0.1,0.1c0,0,0.1,0,0.1,0c0,0,0.1,0,0.1,0c0,0,0.1-0.1,0.1-0.1c0,0,0-0.1,0-0.1
			c0-0.1,0-0.1,0-0.2v-0.3H5.3v-0.3h0.6v1.3H5.6l0-0.2c0,0.1-0.1,0.2-0.2,0.2C5.3,14.4,5.3,14.4,5.2,14.4z"/>
		<path class="st4" d="M6.7,13.7c0-0.1,0-0.2,0-0.2c0-0.1,0.1-0.1,0.1-0.2c0-0.1,0.1-0.1,0.1-0.2S7.1,13,7.1,13l0,0l-0.1-0.1
			c0,0-0.1-0.1-0.1-0.1c0-0.1,0-0.1-0.1-0.2c0-0.1,0-0.1,0-0.2c0-0.1,0-0.1,0-0.2c0-0.1,0-0.2,0-0.2s0.1-0.1,0.1-0.2
			c0.1,0,0.1-0.1,0.2-0.1c0.1,0,0.1,0,0.2,0c0.1,0,0.2,0,0.3,0c0.1,0,0.1,0.1,0.2,0.1c0,0,0.1,0.1,0.1,0.1c0,0.1,0,0.1,0,0.1
			c0,0.1,0,0.2,0,0.3c0,0.1-0.1,0.2-0.1,0.2c0,0.1-0.1,0.1-0.1,0.2s-0.1,0.1-0.1,0.1l0,0l0.4,0.7c0-0.1,0-0.1,0-0.2
			c0-0.1,0-0.1,0-0.2c0,0,0-0.1,0-0.1c0,0,0-0.1,0-0.1h0.3c0,0,0,0.1,0,0.1c0,0,0,0.1,0,0.1c0,0.1,0,0.2-0.1,0.3
			c0,0.1-0.1,0.2-0.2,0.3l0.2,0.4H7.9l-0.1-0.1c-0.1,0.1-0.1,0.1-0.2,0.1c-0.1,0-0.2,0-0.2,0c-0.1,0-0.2,0-0.3,0
			c-0.1,0-0.1-0.1-0.2-0.1c-0.1-0.1-0.1-0.1-0.1-0.2C6.7,13.9,6.7,13.8,6.7,13.7z M7.1,13.7c0,0,0,0.1,0,0.1c0,0,0,0.1,0.1,0.1
			c0,0,0.1,0.1,0.1,0.1c0,0,0.1,0,0.2,0c0,0,0.1,0,0.1,0c0,0,0.1,0,0.1-0.1l-0.4-0.8c-0.1,0.1-0.1,0.2-0.1,0.2
			C7.1,13.5,7.1,13.6,7.1,13.7z M7.4,12.7C7.4,12.6,7.5,12.6,7.4,12.7c0.1-0.1,0.1-0.1,0.1-0.2c0,0,0-0.1,0.1-0.1c0,0,0-0.1,0-0.2
			c0,0,0-0.1,0-0.1c0,0,0-0.1,0-0.1c0,0,0,0-0.1,0c0,0,0,0-0.1,0c0,0,0,0-0.1,0c0,0,0,0-0.1,0s0,0-0.1,0.1c0,0,0,0.1,0,0.1
			c0,0,0,0.1,0,0.1c0,0,0,0.1,0,0.1c0,0,0,0.1,0,0.1C7.4,12.6,7.4,12.6,7.4,12.7L7.4,12.7z"/>
		<path class="st4" d="M9.9,14.4c0,0-0.1,0-0.1,0c0,0-0.1,0-0.1,0c0,0-0.1-0.1-0.1-0.1c0,0-0.1-0.1-0.1-0.2c0-0.1-0.1-0.1-0.1-0.2
			c0-0.1,0-0.2,0-0.3v-0.9c0-0.1,0-0.2,0-0.3c0-0.1,0-0.2,0.1-0.2c0-0.1,0.1-0.1,0.1-0.1s0.1-0.1,0.1-0.1c0,0,0.1,0,0.1,0
			c0,0,0.1,0,0.1,0c0.1,0,0.2,0,0.3,0c0.1,0,0.1,0.1,0.2,0.1c0,0,0.1,0.1,0.1,0.2c0,0.1,0,0.1,0,0.2c0,0.1,0,0.1,0,0.2
			c0,0,0,0.1,0,0.2H10v-0.1c0-0.1,0-0.2,0-0.3c0-0.1-0.1-0.1-0.1-0.1c0,0-0.1,0-0.1,0c0,0,0,0-0.1,0.1s0,0.1,0,0.1
			c0,0.1,0,0.1,0,0.2v1.2c0,0.1,0,0.1,0,0.2c0,0.1,0,0.1,0,0.1c0,0,0,0.1,0.1,0.1c0,0,0.1,0,0.1,0c0,0,0,0,0.1,0c0,0,0,0,0.1-0.1
			c0,0,0-0.1,0-0.1c0,0,0-0.1,0-0.1v-0.2h0.4v0.2c0,0.2,0,0.4-0.1,0.5C10.2,14.3,10,14.4,9.9,14.4z"/>
		<path class="st4" d="M11,11.8h0.4l0.5,2.5h-0.4l-0.1-0.5H11l-0.1,0.5h-0.4L11,11.8z M11.4,13.6l-0.2-1.3h0L11,13.6H11.4z"/>
		<path class="st4" d="M12.4,12.1H12v-0.3h1.2v0.3h-0.4v2.2h-0.4V12.1z"/>
	</g>
	<g>
		<path class="st4" d="M2.2,16L2,15.7H1.6L1.5,16H1.4l0.4-1h0.1l0.4,1H2.2z M2,15.6l-0.1-0.3l0-0.2c0,0.1,0,0.1,0,0.2l-0.1,0.3H2z"
			/>
		<path class="st4" d="M3.2,16H3.1l-0.5-0.8h0l0,0.1c0,0.1,0,0.2,0,0.2V16H2.4v-1h0.1l0,0L3,15.5l0.2,0.3h0c0,0,0-0.1,0-0.1
			c0-0.1,0-0.1,0-0.1V15h0.1V16z"/>
		<path class="st4" d="M3.8,16H3.4v-0.1l0.1,0v-0.8l-0.1,0V15h0.4V15l-0.1,0v0.8L3.8,16L3.8,16z"/>
		<path class="st4" d="M4.5,16l-0.3-0.9h0c0,0.1,0,0.2,0,0.3V16H4v-1h0.2l0.3,0.8h0L4.8,15H5v1H4.9v-0.6c0-0.1,0-0.2,0-0.3h0L4.6,16
			H4.5z"/>
		<path class="st4" d="M5.9,16l-0.1-0.3H5.4L5.3,16H5.2l0.4-1h0.1l0.4,1H5.9z M5.8,15.6l-0.1-0.3l0-0.2c0,0.1,0,0.1,0,0.2l-0.1,0.3
			H5.8z"/>
		<path class="st4" d="M6.2,16v-1h0.1v0.9h0.4V16H6.2z"/>
		<path class="st4" d="M7.9,15.7c0,0.1,0,0.2-0.1,0.2S7.7,16,7.5,16c-0.1,0-0.2,0-0.3,0v-0.1c0,0,0.1,0,0.1,0c0.1,0,0.1,0,0.1,0
			c0.1,0,0.1,0,0.2,0c0,0,0.1-0.1,0.1-0.1c0,0,0-0.1,0-0.1c0,0,0,0-0.1-0.1c0,0-0.1,0-0.1-0.1c-0.1,0-0.2-0.1-0.2-0.1
			c0,0-0.1-0.1-0.1-0.2c0-0.1,0-0.1,0.1-0.2C7.4,15,7.5,15,7.6,15c0.1,0,0.2,0,0.3,0.1l0,0.1c-0.1,0-0.2-0.1-0.2-0.1
			c-0.1,0-0.1,0-0.1,0c0,0-0.1,0.1-0.1,0.1c0,0,0,0.1,0,0.1c0,0,0,0,0.1,0.1c0,0,0.1,0,0.1,0.1c0.1,0,0.1,0.1,0.2,0.1
			c0,0,0.1,0.1,0.1,0.1C7.9,15.6,7.9,15.7,7.9,15.7z"/>
		<path class="st4" d="M8.9,16H8.8v-0.5H8.2V16H8.1v-1h0.1v0.4h0.5V15h0.1V16z"/>
		<path class="st4" d="M9.7,16H9.2v-1h0.6v0.1H9.3v0.3h0.4v0.1H9.3v0.4h0.4V16z"/>
		<path class="st4" d="M10,16v-1h0.1v0.9h0.4V16H10z"/>
		<path class="st4" d="M11,16h-0.1v-0.9h-0.3V15h0.8v0.1H11V16z"/>
		<path class="st4" d="M12.1,16h-0.6v-1h0.6v0.1h-0.4v0.3H12v0.1h-0.4v0.4h0.4V16z"/>
		<path class="st4" d="M12.4,15.6V16h-0.1v-1h0.3c0.1,0,0.2,0,0.3,0.1c0.1,0,0.1,0.1,0.1,0.2c0,0.1-0.1,0.2-0.2,0.3L13,16h-0.1
			l-0.2-0.4H12.4z M12.4,15.5h0.2c0.1,0,0.1,0,0.2,0s0.1-0.1,0.1-0.1s0-0.1-0.1-0.1c0,0-0.1,0-0.2,0h-0.1V15.5z"/>
	</g>
</g>
</svg>
